<svg version="1.1" id="Capa_1" xmlns="http://www.w3.org/2000/svg" xmlns:xlink="http://www.w3.org/1999/xlink" x="0px" y="0px" viewBox="0 0 512 512" style="enable-background:new 0 0 512 512;" xml:space="preserve">
<g>
	<path style="fill:#7BACDF;" d="M504.5,79.094c0-13.807-11.193-25-25-25h-447c-13.807,0-25,11.193-25,25v37.125L256,131.75&#10;&#9;&#9;l248.5-15.531V79.094z"/>
	<path style="fill:#5F99D7;" d="M485.12,54.728c0.25,1.418,0.38,2.876,0.38,4.366v58.312l19-1.188V79.094&#10;&#9;&#9;C504.5,67.219,496.221,57.278,485.12,54.728z"/>
	<path style="fill:#FFE177;" d="M7.5,116.219v316.688c0,13.807,11.193,25,25,25h447c13.807,0,25-11.193,25-25V116.219H7.5z"/>
	<path style="fill:#FFD15B;" d="M485.5,116.219v296.688c0,13.807-11.193,25-25,25h-447c-1.932,0-3.813-0.219-5.62-0.634&#10;&#9;&#9;c2.065,11.726,12.302,20.634,24.62,20.634h447c13.807,0,25-11.193,25-25V116.219H485.5z"/>
	<circle style="fill:#978ECB;" cx="256" cy="116.219" r="31.062"/>
	<path style="fill:#8379C1;" d="M256,85.156c-2.586,0-5.098,0.316-7.5,0.912c13.532,3.355,23.562,15.581,23.562,30.151&#10;&#9;&#9;s-10.031,26.795-23.562,30.151c2.402,0.596,4.914,0.912,7.5,0.912c17.155,0,31.062-13.907,31.062-31.062S273.155,85.156,256,85.156&#10;&#9;&#9;z"/>
	<path style="fill:#978ECB;" d="M198.875,256h114.25c2.761,0,5-2.239,5-5v-39.658c0-18.224-14.774-32.998-32.998-32.998h-58.253&#10;&#9;&#9;c-18.224,0-32.998,14.774-32.998,32.998V251C193.875,253.761,196.114,256,198.875,256z"/>
	<path style="fill:#8379C1;" d="M299.727,181.742c2.175,4.402,3.398,9.358,3.398,14.6V236c0,2.761-2.239,5-5,5h-104.25v10&#10;&#9;&#9;c0,2.761,2.239,5,5,5h114.25c2.761,0,5-2.239,5-5v-39.658C318.125,198.36,310.628,187.129,299.727,181.742z"/>
	<path style="fill:#7BACDF;" d="M297.594,426.844h-83.188c-2.761,0-5-2.239-5-5V385.25c0-2.761,2.239-5,5-5h83.188&#10;&#9;&#9;c2.761,0,5,2.239,5,5v36.594C302.594,424.605,300.355,426.844,297.594,426.844z"/>
	<path style="fill:#5F99D7;" d="M297.594,380.25h-12v24.594c0,2.761-2.239,5-5,5h-71.188v12c0,2.761,2.239,5,5,5h83.188&#10;&#9;&#9;c2.761,0,5-2.239,5-5V385.25C302.594,382.489,300.355,380.25,297.594,380.25z"/>
	<path style="fill:#FFFFFF;" d="M390.781,349.188H121.219c-2.761,0-5-2.239-5-5v-52.125c0-2.761,2.239-5,5-5h269.562&#10;&#9;&#9;c2.761,0,5,2.239,5,5v52.125C395.781,346.949,393.543,349.188,390.781,349.188z"/>
	<path style="fill:none;stroke:#000000;stroke-width:15;stroke-linecap:round;stroke-linejoin:round;stroke-miterlimit:10;" d="&#10;&#9;&#9;M90.221,54.094H32.5c-13.807,0-25,11.193-25,25v37.125"/>
	<path style="fill:none;stroke:#000000;stroke-width:15;stroke-linecap:round;stroke-linejoin:round;stroke-miterlimit:10;" d="&#10;&#9;&#9;M504.5,116.219V79.094c0-13.807-11.193-25-25-25H125.221"/>
	
		<polyline style="fill:none;stroke:#000000;stroke-width:15;stroke-linecap:round;stroke-linejoin:round;stroke-miterlimit:10;" points="&#10;&#9;&#9;504.5,195.681 504.5,116.219 287.062,116.219 &#9;"/>
	<path style="fill:none;stroke:#000000;stroke-width:15;stroke-linecap:round;stroke-linejoin:round;stroke-miterlimit:10;" d="&#10;&#9;&#9;M224.938,116.219H7.5v316.688c0,13.807,11.193,25,25,25h447c13.807,0,25-11.193,25-25V230.681"/>
	<g>
		<g>
			
				<line style="fill:none;stroke:#000000;stroke-width:15;stroke-linecap:round;stroke-linejoin:round;stroke-miterlimit:10;" x1="473.438" y1="85.156" x2="473.438" y2="85.156"/>
		</g>
	</g>
	<g>
		<g>
			
				<line style="fill:none;stroke:#000000;stroke-width:15;stroke-linecap:round;stroke-linejoin:round;stroke-miterlimit:10;" x1="442.375" y1="85.156" x2="442.375" y2="85.156"/>
		</g>
	</g>
	<g>
		<g>
			
				<line style="fill:none;stroke:#000000;stroke-width:15;stroke-linecap:round;stroke-linejoin:round;stroke-miterlimit:10;" x1="411.312" y1="85.156" x2="411.312" y2="85.156"/>
		</g>
	</g>
	
		<line style="fill:none;stroke:#000000;stroke-width:15;stroke-linecap:round;stroke-linejoin:round;stroke-miterlimit:10;" x1="38.562" y1="85.156" x2="69.625" y2="85.156"/>
	
		<line style="fill:none;stroke:#000000;stroke-width:15;stroke-linecap:round;stroke-linejoin:round;stroke-miterlimit:10;" x1="287.062" y1="224.938" x2="287.062" y2="256"/>
	
		<line style="fill:none;stroke:#000000;stroke-width:15;stroke-linecap:round;stroke-linejoin:round;stroke-miterlimit:10;" x1="224.938" y1="224.938" x2="224.938" y2="256"/>
	
		<circle style="fill:none;stroke:#000000;stroke-width:15;stroke-linecap:round;stroke-linejoin:round;stroke-miterlimit:10;" cx="256" cy="116.219" r="31.062"/>
	<path style="fill:none;stroke:#000000;stroke-width:15;stroke-linecap:round;stroke-linejoin:round;stroke-miterlimit:10;" d="&#10;&#9;&#9;M198.875,256h114.25c2.761,0,5-2.239,5-5v-39.658c0-18.224-14.774-32.998-32.998-32.998h-58.253&#10;&#9;&#9;c-18.224,0-32.998,14.774-32.998,32.998V251C193.875,253.761,196.114,256,198.875,256z"/>
	<path style="fill:none;stroke:#000000;stroke-width:15;stroke-linecap:round;stroke-linejoin:round;stroke-miterlimit:10;" d="&#10;&#9;&#9;M297.594,426.844h-83.188c-2.761,0-5-2.239-5-5V385.25c0-2.761,2.239-5,5-5h83.188c2.761,0,5,2.239,5,5v36.594&#10;&#9;&#9;C302.594,424.605,300.355,426.844,297.594,426.844z"/>
	<path style="fill:none;stroke:#000000;stroke-width:15;stroke-linecap:round;stroke-linejoin:round;stroke-miterlimit:10;" d="&#10;&#9;&#9;M148.676,349.188h-27.458c-2.761,0-5-2.239-5-5v-52.125c0-2.761,2.239-5,5-5h269.562c2.761,0,5,2.239,5,5v52.125&#10;&#9;&#9;c0,2.761-2.239,5-5,5H183.676"/>
	<g>
		<g>
			
				<line style="fill:none;stroke:#000000;stroke-width:15;stroke-linecap:round;stroke-linejoin:round;stroke-miterlimit:10;" x1="147.281" y1="318.125" x2="147.281" y2="318.125"/>
		</g>
	</g>
	<g>
		<g>
			
				<line style="fill:none;stroke:#000000;stroke-width:15;stroke-linecap:round;stroke-linejoin:round;stroke-miterlimit:10;" x1="178.344" y1="318.125" x2="178.344" y2="318.125"/>
		</g>
	</g>
	<g>
		<g>
			
				<line style="fill:none;stroke:#000000;stroke-width:15;stroke-linecap:round;stroke-linejoin:round;stroke-miterlimit:10;" x1="209.406" y1="318.125" x2="209.406" y2="318.125"/>
		</g>
	</g>
	<g>
		<g>
			
				<line style="fill:none;stroke:#000000;stroke-width:15;stroke-linecap:round;stroke-linejoin:round;stroke-miterlimit:10;" x1="240.469" y1="318.125" x2="240.469" y2="318.125"/>
		</g>
	</g>
	<g>
		<g>
			
				<line style="fill:none;stroke:#000000;stroke-width:15;stroke-linecap:round;stroke-linejoin:round;stroke-miterlimit:10;" x1="271.531" y1="318.125" x2="271.531" y2="318.125"/>
		</g>
	</g>
	<g>
		<g>
			
				<line style="fill:none;stroke:#000000;stroke-width:15;stroke-linecap:round;stroke-linejoin:round;stroke-miterlimit:10;" x1="302.594" y1="318.125" x2="302.594" y2="318.125"/>
		</g>
	</g>
	<g>
		<g>
			
				<line style="fill:none;stroke:#000000;stroke-width:15;stroke-linecap:round;stroke-linejoin:round;stroke-miterlimit:10;" x1="333.656" y1="318.125" x2="333.656" y2="318.125"/>
		</g>
	</g>
	<g>
		<g>
			
				<line style="fill:none;stroke:#000000;stroke-width:15;stroke-linecap:round;stroke-linejoin:round;stroke-miterlimit:10;" x1="364.719" y1="318.125" x2="364.719" y2="318.125"/>
		</g>
	</g>
</g>
<g>
</g>
<g>
</g>
<g>
</g>
<g>
</g>
<g>
</g>
<g>
</g>
<g>
</g>
<g>
</g>
<g>
</g>
<g>
</g>
<g>
</g>
<g>
</g>
<g>
</g>
<g>
</g>
<g>
</g>
</svg>