<svg height="512" viewBox="0 0 64 64" width="512" xmlns="http://www.w3.org/2000/svg"><g id="Layer_34" data-name="Layer 34"><g id="Layer_24" data-name="Layer 24"><path d="m59.49 35.04a3 3 0 0 1 2.51 2.96 3 3 0 0 1 -3 3h-54a3 3 0 0 1 -3-3 3 3 0 0 1 3-3h2.062z" fill="#7c7c7c"/><path d="m59.49 36.04-52.428-.04h-2.062a3 3 0 0 0 -2.95 2.5 3 3 0 0 0 2.95 2.5h54a2.992 2.992 0 0 0 2.952-2.527 3 3 0 0 0 -2.462-2.433z" fill="#8c8c8c"/><path d="m5 19.4v-14.4a3 3 0 0 1 3-3h48a3 3 0 0 1 3 3v12.5z" fill="#8c8c8c"/><path d="m59 14.497-23.211-3.407-1.675-4.816-29.114 10.123v3l54-1.9z" fill="#7a7a7a"/><path d="m55 16.91v-7.932a2.978 2.978 0 0 0 -2.978-2.978h-40.05a2.978 2.978 0 0 0 -2.977 2.984l.005 9.016z" fill="#f2f2f2"/><path d="m35.789 11.09-1.675-4.816-25.118 8.734.001 2.992 46.003-1.09v-3z" fill="#ddd"/><path d="m35.789 14.09-1.675-4.816-32.114 11.166 13 37.389z" fill="#cecece"/><path d="m14 54.953 1 2.876 19.406-40.829h-20.406z" fill="#b7b7b7"/><path d="m49 60.501 6.61.97 6.39-43.533-33.64-4.938-.733 5z" fill="#e0e0e0"/><path d="m27.627 18 21.373 42.501 1 .147v-43.648h-22.227z" fill="#c6c6c6"/><path d="m15 18h34v44h-34z" fill="#e8e8e8"/><path d="m15 25h34v37h-34z" fill="#f2f2f2"/><path d="m18 21h28v12h-28z" fill="#ead48c"/><path d="m18 25h28v8h-28z" fill="#fce694"/><path d="m19 35h26v4h-26z" fill="#a6d305"/><path d="m23 41h18v4h-18z" fill="#dbdcdd"/><circle cx="40" cy="54" fill="#e73844" r="6"/><path d="m49 22 3.289.411a4.814 4.814 0 0 1 4.187 5.307 4.813 4.813 0 0 1 -4.784 4.282h-2.692" fill="#358cbc"/><path d="m50 22.125-1-.125v10h1z" fill="#3081a5"/><path d="m15 30.708-4.158 1.694-3.019-7.408 7.177-2.924" fill="#785349"/><path d="m14 31.116 1-.408v-8.638l-1 .407z" fill="#684942"/></g></g><g id="Layer_35" data-name="Layer 35"><path d="m60.6 34.347 2.387-16.264a1 1 0 0 0 -.843-1.135l-2.144-.315v-11.633a4.008 4.008 0 0 0 -4-4h-48a4.008 4.008 0 0 0 -4 4v13.687l-2.328.813a1 1 0 0 0 -.616 1.273l4.6 13.227h-.656a4 4 0 0 0 0 8h3.438l5.562 16v4a1 1 0 0 0 1 1h34a1 1 0 0 0 1-1v-.342l5.465.8a.914.914 0 0 0 .146.011 1 1 0 0 0 .989-.855l2.886-19.665a3.98 3.98 0 0 0 1.116-7.6zm-54.6-29.347a2 2 0 0 1 2-2h48a2 2 0 0 1 2 2v11.34l-2.5-.367v-6.994a3.483 3.483 0 0 0 -3.479-3.479h-40.048a3.477 3.477 0 0 0 -3.478 3.484v8.139l-2.495.868zm44 17.629 2.228.278a4.313 4.313 0 0 1 -.536 8.593h-1.692zm-36 7.947-2.884 1.175-2.641-6.482 5.525-2.252zm1-13.576a1.034 1.034 0 0 0 -.145.029l12.588-4.377a1.034 1.034 0 0 0 -.072.2l-.608 4.148zm14.2-2.865 19.528 2.865h-19.944zm-.149-2.044 4.449-1.544.8 2.315zm7.478 1.1-1.47-4.245a1 1 0 0 0 -1.273-.616l-24.286 8.445v-7.791a2.477 2.477 0 0 1 2.478-2.479h40.048a2.482 2.482 0 0 1 2.474 2.474v6.847zm-31.529 26.809a2 2 0 0 1 0-4h1.352l1.39 4zm-1.728-18.943 11.229-3.9a.986.986 0 0 0 -.501.843v3.937l-6.365 2.594a.5.5 0 0 0 -.275.652l3.019 7.408a.5.5 0 0 0 .268.272.5.5 0 0 0 .383 0l2.97-1.208v20.254zm44.728 39.943h-32v-42h32zm6.767-.664-4.767-.699v-7.137h4v-1h-4v-5h4v-1h-4v-13h1.692a5.313 5.313 0 0 0 .66-10.585l-2.352-.294v-3.621a1 1 0 0 0 -.575-.9l11.44 1.679zm5.03-20.5.494-3.363a2 2 0 0 1 -.494 3.363z"/><path d="m19.5 23h1v8h-1z"/><path d="m24.466 28.484-2.166-5.231a.6.6 0 0 0 -1.146.225v7.522h1v-5.484l2.165 5.231a.586.586 0 0 0 .547.368.714.714 0 0 0 .12-.011.588.588 0 0 0 .479-.582v-7.522h-1z"/><path d="m29.441 22.9-1.165 5.633-1.166-5.633-.978.2 1.558 7.537a.6.6 0 0 0 1.17 0l1.56-7.537z"/><path d="m32.414 22.5c-1.415 0-2.155 2.264-2.155 4.5s.74 4.5 2.155 4.5 2.155-2.264 2.155-4.5-.74-4.5-2.155-4.5zm0 8c-.393 0-1.155-1.235-1.155-3.5s.762-3.5 1.155-3.5 1.155 1.235 1.155 3.5-.762 3.5-1.155 3.5z"/><path d="m35.225 23h1v8h-1z"/><path d="m36.879 24.32v5.36a1.845 1.845 0 0 0 1.866 1.82h1.117v-1h-1.117a.845.845 0 0 1 -.866-.82v-5.36a.845.845 0 0 1 .866-.82h1.117v-1h-1.117a1.845 1.845 0 0 0 -1.866 1.82z"/><path d="m41.018 23.724v6.552a1.237 1.237 0 0 0 1.248 1.224h1.734v-1h-1.734a.237.237 0 0 1 -.248-.224v-2.776h1.982v-1h-1.982v-2.776a.237.237 0 0 1 .248-.224h1.734v-1h-1.734a1.237 1.237 0 0 0 -1.248 1.224z"/><path d="m18 33.5h28a.5.5 0 0 0 .5-.5v-12a.5.5 0 0 0 -.5-.5h-28a.5.5 0 0 0 -.5.5v12a.5.5 0 0 0 .5.5zm.5-12h27v11h-27z"/><path d="m45 39.5a.5.5 0 0 0 .5-.5v-4a.5.5 0 0 0 -.5-.5h-26a.5.5 0 0 0 -.5.5v4a.5.5 0 0 0 .5.5zm-25.5-4h25v3h-25z"/><path d="m41.5 45v-4a.5.5 0 0 0 -.5-.5h-18a.5.5 0 0 0 -.5.5v4a.5.5 0 0 0 .5.5h18a.5.5 0 0 0 .5-.5zm-1-.5h-17v-3h17z"/><path d="m40 47.5a6.5 6.5 0 1 0 6.5 6.5 6.508 6.508 0 0 0 -6.5-6.5zm0 12a5.5 5.5 0 1 1 5.5-5.5 5.507 5.507 0 0 1 -5.5 5.5z"/><path d="m40.5 53.5v-2h1.5v-1h-1.5v-1.5h-1v1.5a2 2 0 0 0 0 4v2h-1.5v1h1.5v1.5h1v-1.5a2 2 0 0 0 0-4zm-2-1a1 1 0 0 1 1-1v2a1 1 0 0 1 -1-1zm2 4v-2a1 1 0 0 1 0 2z"/><path d="m19 57.5h12v1h-12z"/><path d="m21 53.5h8v1h-8z"/></g></svg>