<svg height="512" viewBox="0 0 64 64" width="512" xmlns="http://www.w3.org/2000/svg"><g id="Employee-Online_Shopping-Working_At_Home-Shopping_Bag-Headphone" data-name="Employee-Online Shopping-Working At Home-Shopping Bag-Headphone"><path d="m55 26.39v32.61a2.006 2.006 0 0 1 -2 2h-42a2.006 2.006 0 0 1 -2-2v-32.5l23-19.5z" fill="#acabb1"/><path d="m55 26.39v.31l-21-17.7-23 19.5-2 1.7v-3.7l23-19.5z" fill="#898890"/><path d="m60.34 25.66a2 2 0 1 1 -2.57 3.06l-2.77-2.33-23-19.39-23 19.5-2.77 2.35a2.01 2.01 0 0 1 -3.02-.52 2.1 2.1 0 0 1 .53-2.62l26.98-22.63a1.982 1.982 0 0 1 2.56-.01z" fill="#ff9811"/><path d="m53 34v15a2.006 2.006 0 0 1 -2 2h-24.13a3.981 3.981 0 0 1 -1.87 2.46v2.54a5.99 5.99 0 0 1 5.91 5h-15.82a5.99 5.99 0 0 1 5.91-5v-2.54a4.225 4.225 0 0 1 -.83-.63 4.025 4.025 0 0 1 -1.17-2.83v1h-1a3 3 0 0 1 0-6h1a4.025 4.025 0 0 1 1.17-2.83 4.225 4.225 0 0 1 .83-.63v-10.54h20v3z" fill="#898890"/><path d="m19 29h20v16h-20z" fill="#5aaae7"/><path d="m39 45v2a2.006 2.006 0 0 1 -2 2h-16a2.006 2.006 0 0 1 -2-2v-1.06a3.919 3.919 0 0 0 1.99-.94z" fill="#d1d3d4"/><path d="m51 45v2a2.006 2.006 0 0 1 -2 2h-12a2.006 2.006 0 0 0 2-2v-2z" fill="#e6e7e8"/><path d="m39 45v2a2 2 0 0 1 -4 0v-2z" fill="#e6e7e8"/><path d="m29 60v1h-16v-1a6 6 0 0 1 6-6 2 2 0 0 0 4 0 6 6 0 0 1 6 6z" fill="#3d9ae2"/><path d="m28 44h-1a3.994 3.994 0 0 0 -6-3.46 4.225 4.225 0 0 0 -.83.63 4.025 4.025 0 0 0 -1.17 2.83v1h11.226a2.971 2.971 0 0 0 -2.226-1z" fill="#3d9ae2"/><path d="m30.82 46a2.916 2.916 0 0 0 -.594-1h-11.226v4h11.219a2.975 2.975 0 0 0 .781-2 2.772 2.772 0 0 0 -.18-1z" fill="#c6c5ca"/><path d="m25 43v3h-.17a2.006 2.006 0 0 1 -1.42-.59l-1.41-1.41-.83.83c-.06.06-.12.11-.18.17a3.919 3.919 0 0 1 -1.99.94 3.683 3.683 0 0 1 -.66.06h-1.34v-3a4.025 4.025 0 0 1 1.17-2.83 4.225 4.225 0 0 1 .83-.63 3.994 3.994 0 0 1 6 3.46z" fill="#57565c"/><path d="m23 51v3a2 2 0 0 1 -4 0v-3z" fill="#ffc477"/><path d="m23 51v2.46a3.974 3.974 0 0 1 -4 0v-2.46z" fill="#ffb655"/><path d="m25 46v2a3.657 3.657 0 0 1 -.13 1 3.99 3.99 0 0 1 -5.87 2.46 4.225 4.225 0 0 1 -.83-.63 4.025 4.025 0 0 1 -1.17-2.83v-2h1.34a3.683 3.683 0 0 0 .66-.06 3.919 3.919 0 0 0 1.99-.94c.06-.06.12-.11.18-.17l.83-.83 1.41 1.41a2.006 2.006 0 0 0 1.42.59z" fill="#ffc477"/><path d="m36 33h-2v-6a5 5 0 0 0 -10 0v6h-2v-6a7 7 0 0 1 14 0z" fill="#3d9ae2"/><path d="m29 46h-2v-3a6 6 0 0 0 -12 0v3h-2v-3a8 8 0 0 1 16 0z" fill="#ffa733"/><path d="m39 32h-4v1 12h4 12v-13z" fill="#ff9811"/><g fill="#ee8700"><path d="m43 42a5.006 5.006 0 0 1 -5-5v-2h2v2a3 3 0 0 0 6 0v-2h2v2a5.006 5.006 0 0 1 -5 5z"/><path d="m28.82 45a2.968 2.968 0 0 0 -2.82-2h-1v6h1a3 3 0 0 0 3-3 2.772 2.772 0 0 0 -.18-1z"/><path d="m17 46v3h-1a3 3 0 0 1 0-6h1z"/></g></g></svg>